<?xml version="1.0" standalone="no"?>
<!DOCTYPE svg PUBLIC "-//W3C//DTD SVG 20010904//EN"
 "http://www.w3.org/TR/2001/REC-SVG-20010904/DTD/svg10.dtd">
<svg version="1.0" xmlns="http://www.w3.org/2000/svg"
 width="700.000000pt" height="700.000000pt" viewBox="0 0 700.000000 700.000000"
 preserveAspectRatio="xMidYMid meet">
<metadata>
Created by potrace 1.14, written by Peter Selinger 2001-2017
</metadata>
<g transform="translate(0.000000,700.000000) scale(0.100000,-0.100000)"
fill="#000000" stroke="none">
<path d="M3435 6963 c-60 -35 -717 -415 -1545 -893 -181 -104 -304 -175 -880
-508 -157 -91 -303 -175 -325 -187 -22 -13 -78 -45 -125 -72 l-85 -49 0 -1753
0 -1754 245 -142 c135 -78 385 -222 555 -320 171 -98 335 -193 365 -211 30
-18 242 -140 470 -272 228 -131 489 -282 580 -334 91 -52 310 -179 488 -282
l322 -186 228 131 c125 73 297 172 382 221 85 50 173 100 195 112 22 13 91 53
154 89 62 37 115 67 117 67 1 0 55 31 120 70 64 38 118 70 119 70 1 0 56 31
121 69 66 37 349 201 629 363 281 162 530 306 555 320 25 14 92 53 148 86 57
34 106 62 108 62 2 0 37 21 79 46 l75 46 -2 1751 -3 1751 -85 49 c-47 27 -103
60 -125 72 -22 13 -107 62 -190 110 -82 48 -170 99 -195 113 -25 13 -70 39
-100 57 -30 18 -72 42 -92 54 -21 11 -124 71 -230 132 -106 61 -206 119 -223
129 -16 9 -118 68 -225 130 -107 62 -211 122 -230 133 -19 10 -150 86 -290
167 -706 408 -1040 600 -1043 600 -1 -1 -29 -17 -62 -37z m327 -611 c134 -77
259 -149 278 -160 19 -11 220 -127 445 -257 226 -131 433 -250 460 -266 28
-15 150 -85 271 -156 122 -70 370 -213 552 -318 l331 -190 0 -1505 0 -1505
-152 -87 c-84 -47 -303 -173 -488 -280 l-335 -194 0 684 c1 376 -1 687 -4 692
-3 4 -61 40 -130 79 -69 40 -132 76 -140 81 -16 10 -244 142 -296 171 -102 57
-821 473 -829 479 -7 6 -10 327 -10 939 0 512 -3 931 -7 931 -5 0 -207 -115
-450 -256 -244 -141 -459 -265 -478 -275 -19 -11 -42 -24 -50 -29 -25 -16
-697 -404 -800 -462 -19 -11 -39 -24 -44 -28 -5 -5 -10 -633 -11 -1502 -1
-1211 -4 -1492 -14 -1490 -7 1 -115 62 -240 134 -124 72 -245 141 -268 154
-23 14 -131 76 -239 139 -109 63 -201 115 -206 115 -4 0 -7 678 -6 1507 l3
1507 125 73 c69 41 132 77 140 80 8 4 26 14 40 23 14 10 48 30 75 45 28 15
266 152 530 305 583 337 524 303 741 428 98 57 186 107 194 112 8 5 53 32 100
58 47 27 175 101 285 164 110 64 217 125 237 136 21 12 54 33 75 46 21 14 46
24 55 22 9 -2 126 -67 260 -144z m-477 -2164 l0 -563 -200 -116 c-110 -63
-274 -159 -365 -211 -91 -53 -188 -108 -215 -123 -28 -15 -54 -31 -60 -35 -5
-5 -38 -24 -72 -44 l-63 -35 -1 27 c0 36 0 1062 0 1084 1 10 37 38 94 71 191
113 340 197 348 197 5 0 9 5 9 10 0 6 4 10 9 10 5 0 49 23 98 51 48 29 107 62
130 75 23 13 95 55 160 94 65 38 120 69 123 70 3 0 5 -253 5 -562z m557 -1134
c178 -103 339 -196 358 -206 19 -11 55 -32 80 -47 67 -39 92 -53 148 -85 50
-28 51 -29 29 -41 -12 -6 -61 -35 -109 -63 -48 -29 -91 -52 -97 -52 -6 0 -11
-4 -11 -10 0 -5 -4 -10 -9 -10 -5 0 -42 -19 -83 -43 -40 -24 -93 -55 -118 -69
-124 -69 -458 -263 -482 -279 -15 -11 -35 -19 -44 -19 -28 0 -976 552 -965
563 23 23 957 556 968 552 7 -2 158 -88 335 -191z m-1494 -762 c15 -10 59 -36
97 -58 39 -21 82 -45 96 -54 42 -24 317 -183 352 -203 150 -87 383 -221 387
-225 8 -6 6 -1122 -3 -1122 -4 0 -123 67 -265 149 -141 82 -273 158 -292 169
-39 22 -149 85 -195 112 -16 9 -55 31 -85 49 -30 17 -62 36 -70 41 -8 6 -25
14 -37 20 l-23 10 0 565 c0 311 3 565 6 565 3 0 18 -8 32 -18z m2344 -548 c0
-460 -2 -558 -13 -565 -36 -22 -349 -204 -384 -223 -22 -12 -158 -91 -301
-174 -144 -84 -265 -152 -270 -152 -9 0 -13 1115 -4 1123 3 2 32 19 65 38 86
49 94 53 291 167 99 57 186 108 194 113 73 46 415 237 418 234 3 -2 4 -255 4
-561z"/>
</g>
</svg>
